<svg width="32" height="32" viewBox="0 0 32 32" fill="none" xmlns="http://www.w3.org/2000/svg">
<path d="M15.9997 2.66663C12.686 2.66663 9.99967 5.35292 9.99967 8.66663C9.99967 11.9803 12.686 14.6666 15.9997 14.6666C19.3134 14.6666 21.9997 11.9803 21.9997 8.66663C21.9997 5.35292 19.3134 2.66663 15.9997 2.66663Z" fill="#0762C8"/>
<path d="M15.9998 16C11.5228 16 7.94985 18.3547 6.06993 21.8514C5.23096 23.4118 5.54718 25.0315 6.47724 26.1885C7.37498 27.3054 8.83135 28 10.3935 28H21.6061C23.1683 28 24.6247 27.3054 25.5224 26.1885C26.4525 25.0315 26.7687 23.4118 25.9297 21.8514C24.0498 18.3547 20.4768 16 15.9998 16Z" fill="#0762C8"/>
</svg>
