<svg width="92" height="51" viewBox="0 0 92 51" fill="none" xmlns="http://www.w3.org/2000/svg">
<path fill-rule="evenodd" clip-rule="evenodd" d="M36.0872 24.5994C36.0872 34.2115 55.0468 34.1406 56.1704 24.5994C65.58 39.1918 32.4357 39.3321 30.8908 28.5281V9.44585C31.8739 -2.48057 57.2939 -3.46276 57.2939 10.7086C58.1366 20.1095 44.2328 23.4769 36.0872 19.4079V24.5994ZM20.4981 5.93808H1.95978C1.95978 4.67528 2.3811 1.44813 4.20685 1.44813H27.2393C25.1492 11.8892 20.4211 16.1146 15.6921 20.3408C12.4774 23.2137 9.26233 26.0869 6.87525 30.9134H27.2393C27.5202 32.8778 26.2562 35.2631 24.9923 35.4034H1.11712C0.163892 27.7053 5.18637 23.284 10.4666 18.6358C14.5218 15.0661 18.7289 11.3625 20.4981 5.93808ZM63.4734 0.88688V33.5793C63.4734 35.4034 66.844 36.5258 68.9506 35.9646V6.359C77.2367 4.25434 84.6801 4.39465 85.3823 10.7086V33.5793C85.3823 35.1227 88.6125 36.6662 91 35.9646V11.0774C91 9.08036 90.6269 7.04277 89.4408 5.43618C84.8211 -0.821324 77.7398 0.380727 71.9792 1.35861C68.2465 1.99223 65.0683 2.53174 63.4734 0.88688ZM36.0869 14.9179C33.5589 4.25429 45.5366 2.227 49.9906 6.35896C55.8892 11.8311 49.7097 19.5482 36.0869 14.9179Z" fill="#0078F9"/>
<path d="M56.1704 24.5994L56.2883 24.5234L56.0767 24.1952L56.031 24.583L56.1704 24.5994ZM30.8908 28.5281H30.7505V28.5381L30.7519 28.548L30.8908 28.5281ZM30.8908 9.44585L30.7505 9.43429V9.44585H30.8908ZM57.2939 10.7086H57.153L57.1542 10.7212L57.2939 10.7086ZM36.0872 19.4079L36.1499 19.2824L35.9469 19.181V19.4079H36.0872ZM1.95978 5.93808H1.81947V6.07839H1.95978V5.93808ZM20.4981 5.93808L20.6315 5.98159L20.6915 5.79777H20.4981V5.93808ZM27.2393 1.44813L27.3769 1.47567L27.4105 1.30782H27.2393V1.44813ZM15.6921 20.3408L15.7856 20.4454L15.6921 20.3408ZM6.87525 30.9134L6.74948 30.8512L6.64932 31.0537H6.87525V30.9134ZM27.2393 30.9134L27.3782 30.8936L27.361 30.7731H27.2393V30.9134ZM24.9923 35.4034V35.5437H25L25.0077 35.5428L24.9923 35.4034ZM1.11712 35.4034L0.977877 35.4206L0.993116 35.5437H1.11712V35.4034ZM10.4666 18.6358L10.3739 18.5305L10.4666 18.6358ZM63.4734 0.88688L63.5741 0.789205L63.3331 0.540621V0.88688H63.4734ZM68.9506 35.9646L68.9867 36.1002L69.0909 36.0724V35.9646H68.9506ZM68.9506 6.359L68.9161 6.22301L68.8103 6.24988V6.359H68.9506ZM85.3823 10.7086H85.5226V10.7009L85.5218 10.6931L85.3823 10.7086ZM91 35.9646L91.0396 36.0992L91.1403 36.0696V35.9646H91ZM89.4408 5.43618L89.328 5.51952L89.4408 5.43618ZM71.9792 1.35861L72.0027 1.49694L71.9792 1.35861ZM36.0869 14.9179L35.9503 14.9503L35.9682 15.0258L36.0417 15.0508L36.0869 14.9179ZM49.9906 6.35896L49.8952 6.46182L49.9906 6.35896ZM56.1704 24.5994L56.031 24.583C55.7561 26.9174 54.3915 28.6764 52.4845 29.857C50.5752 31.039 48.1265 31.6372 45.7072 31.6416C43.2874 31.646 40.9114 31.0564 39.145 29.8795C37.383 28.7055 36.2275 26.9487 36.2275 24.5994H36.0872H35.9469C35.9469 27.0562 37.1614 28.895 38.9894 30.113C40.813 31.328 43.2471 31.9266 45.7077 31.9222C48.1688 31.9177 50.6707 31.3099 52.6322 30.0956C54.5962 28.8798 56.0229 27.052 56.3097 24.6158L56.1704 24.5994ZM30.8908 28.5281L30.7519 28.548C31.1489 31.3243 33.57 33.3699 36.7634 34.6544C39.9632 35.9415 43.9787 36.4829 47.6483 36.2273C51.3118 35.9722 54.6644 34.92 56.5089 32.9856C57.4353 32.014 57.9804 30.8202 57.9894 29.4019C57.9984 27.9869 57.474 26.3621 56.2883 24.5234L56.1704 24.5994L56.0525 24.6755C57.2192 26.4848 57.7173 28.0564 57.7088 29.4001C57.7003 30.7402 57.1877 31.8671 56.3058 32.7919C54.534 34.6502 51.2682 35.6939 47.6288 35.9474C43.9954 36.2005 40.0232 35.6632 36.8681 34.3941C33.7064 33.1223 31.4052 31.134 31.0297 28.5083L30.8908 28.5281ZM30.8908 9.44585H30.7505V28.5281H30.8908H31.0311V9.44585H30.8908ZM57.2939 10.7086H57.4342C57.4342 7.11737 55.821 4.48036 53.3883 2.74147C50.9605 1.00609 47.7218 0.167909 44.4618 0.150257C41.2015 0.132604 37.9051 0.935469 35.3576 2.49927C32.8084 4.06422 31.0013 6.39749 30.751 9.43433L30.8908 9.44585L31.0307 9.45738C31.2719 6.531 33.011 4.26909 35.5045 2.73843C37.9998 1.20663 41.2427 0.413453 44.4603 0.430875C47.6782 0.448299 50.8559 1.27631 53.2251 2.96977C55.5893 4.65973 57.1536 7.21422 57.1536 10.7086H57.2939ZM36.0872 19.4079L36.0245 19.5334C40.1347 21.5866 45.6865 21.7613 50.1068 20.2422C54.5277 18.7228 57.8631 15.487 57.4337 10.6961L57.2939 10.7086L57.1542 10.7212C57.5674 15.3312 54.3722 18.4795 50.0156 19.9768C45.6582 21.4743 40.1853 21.2982 36.1499 19.2824L36.0872 19.4079ZM36.0872 24.5994H36.2275V19.4079H36.0872H35.9469V24.5994H36.0872ZM1.95978 5.93808V6.07839H20.4981V5.93808V5.79777H1.95978V5.93808ZM4.20685 1.44813V1.30782C3.70345 1.30782 3.29932 1.53217 2.98221 1.87715C2.66785 2.21914 2.43609 2.68195 2.26605 3.1737C1.92593 4.15734 1.81947 5.29632 1.81947 5.93808H1.95978H2.10009C2.10009 5.31704 2.20429 4.21104 2.53127 3.26541C2.69478 2.79252 2.91068 2.36963 3.18881 2.06706C3.46419 1.76748 3.79738 1.58844 4.20685 1.58844V1.44813ZM27.2393 1.44813V1.30782H4.20685V1.44813V1.58844H27.2393V1.44813ZM15.6921 20.3408L15.7856 20.4454C18.149 18.3333 20.5251 16.2105 22.57 13.3058C24.6165 10.3989 26.3283 6.71388 27.3769 1.47567L27.2393 1.44813L27.1018 1.42059C26.0602 6.62347 24.3629 10.2717 22.3405 13.1443C20.3167 16.0191 17.9642 18.1221 15.5986 20.2361L15.6921 20.3408ZM6.87525 30.9134L7.00102 30.9756C9.37482 26.176 12.5707 23.3185 15.7856 20.4454L15.6921 20.3408L15.5986 20.2361C12.3842 23.1088 9.14984 25.9979 6.74948 30.8512L6.87525 30.9134ZM27.2393 30.9134V30.7731H6.87525V30.9134V31.0537H27.2393V30.9134ZM24.9923 35.4034L25.0077 35.5428C25.3641 35.5033 25.707 35.3076 26.0122 35.0211C26.3183 34.7337 26.595 34.3469 26.8201 33.9062C27.2694 33.0264 27.5235 31.9098 27.3782 30.8936L27.2393 30.9134L27.1004 30.9333C27.236 31.8814 26.9986 32.9396 26.5702 33.7786C26.3563 34.1973 26.0977 34.5559 25.8201 34.8166C25.5415 35.0782 25.2524 35.2333 24.9768 35.2639L24.9923 35.4034ZM1.11712 35.4034V35.5437H24.9923V35.4034V35.2631H1.11712V35.4034ZM10.4666 18.6358L10.3739 18.5305C5.10366 23.1699 0.0142687 27.6387 0.977877 35.4206L1.11712 35.4034L1.25637 35.3861C0.313515 27.7718 5.26908 23.3981 10.5593 18.7412L10.4666 18.6358ZM20.4981 5.93808L20.3647 5.89457C18.6094 11.2767 14.4342 14.9563 10.3739 18.5305L10.4666 18.6358L10.5593 18.7412C14.6094 15.1759 18.8485 11.4484 20.6315 5.98159L20.4981 5.93808ZM63.4734 33.5793H63.6137V0.88688H63.4734H63.3331V33.5793H63.4734ZM68.9506 35.9646L68.9145 35.829C67.8958 36.1004 66.5576 35.9657 65.4737 35.536C64.9329 35.3216 64.4642 35.0371 64.1327 34.7018C63.8021 34.3674 63.6137 33.9888 63.6137 33.5793H63.4734H63.3331C63.3331 34.0819 63.566 34.5276 63.9332 34.8991C64.2995 35.2697 64.8051 35.5728 65.3703 35.7969C66.4983 36.2441 67.8988 36.39 68.9867 36.1002L68.9506 35.9646ZM68.9506 6.359H68.8103V35.9646H68.9506H69.0909V6.359H68.9506ZM85.3823 10.7086L85.5218 10.6931C85.343 9.08566 84.7332 7.86074 83.7798 6.96697C82.8286 6.07515 81.5458 5.52281 80.0363 5.23893C77.0213 4.67192 73.0647 5.16926 68.9161 6.22301L68.9506 6.359L68.9852 6.495C73.1226 5.44408 77.0308 4.95925 79.9845 5.51472C81.4594 5.79209 82.6871 6.32716 83.5879 7.17169C84.4866 8.01427 85.0705 9.17464 85.2429 10.7242L85.3823 10.7086ZM85.3823 33.5793H85.5226V10.7086H85.3823H85.242V33.5793H85.3823ZM91 35.9646L90.9604 35.83C89.8064 36.1691 88.4367 35.9669 87.3528 35.4856C86.8119 35.2454 86.3498 34.939 86.0251 34.6041C85.6991 34.268 85.5226 33.9153 85.5226 33.5793H85.3823H85.242C85.242 34.0151 85.4693 34.4341 85.8236 34.7995C86.1792 35.1662 86.6738 35.4911 87.2389 35.7421C88.3669 36.2429 89.8061 36.4617 91.0396 36.0992L91 35.9646ZM91 11.0774H90.8597V35.9646H91H91.1403V11.0774H91ZM89.4408 5.43618L89.328 5.51952C90.4888 7.09189 90.8597 9.09477 90.8597 11.0774H91H91.1403C91.1403 9.06596 90.7651 6.99365 89.5537 5.35284L89.4408 5.43618ZM71.9792 1.35861L72.0027 1.49694C74.8867 1.00736 78.0771 0.466786 81.1215 0.823483C84.158 1.17924 87.0451 2.42733 89.328 5.51952L89.4408 5.43618L89.5537 5.35284C87.2168 2.18753 84.2534 0.907889 81.1542 0.544768C78.0629 0.182585 74.8323 0.731976 71.9557 1.22028L71.9792 1.35861ZM63.4734 0.88688L63.3726 0.984555C64.2104 1.84855 65.4523 2.12603 66.9255 2.11749C68.3998 2.10893 70.14 1.81314 72.0027 1.49694L71.9792 1.35861L71.9557 1.22028C70.0858 1.53771 68.3705 1.82848 66.9238 1.83687C65.476 1.84527 64.3313 1.57008 63.5741 0.789205L63.4734 0.88688ZM36.0869 14.9179L36.2234 14.8856C35.5975 12.2455 35.8725 10.1547 36.6912 8.56506C37.5104 6.97473 38.8813 5.87128 40.4736 5.21996C43.6688 3.91305 47.716 4.44014 49.8952 6.46182L49.9906 6.35896L50.086 6.25609C47.8113 4.14581 43.6426 3.62057 40.3674 4.96023C38.7246 5.63219 37.2967 6.77675 36.4418 8.43656C35.5865 10.097 35.3122 12.2586 35.9503 14.9503L36.0869 14.9179ZM49.9906 6.35896L49.8952 6.46182C51.3493 7.81083 52.046 9.28553 52.0821 10.6597C52.1181 12.0316 51.4964 13.3246 50.2709 14.3178C47.8145 16.3086 42.9225 17.0931 36.132 14.7851L36.0869 14.9179L36.0417 15.0508C42.8741 17.373 47.8832 16.6141 50.4476 14.5358C51.7325 13.4945 52.4012 12.1216 52.3626 10.6523C52.3241 9.18511 51.5812 7.64314 50.086 6.25609L49.9906 6.35896Z" fill="#0078F9"/>
<path d="M33.8896 48.5161C33.7259 48.5161 33.6441 48.4343 33.6441 48.2707V42.793C33.6441 42.6294 33.7259 42.5476 33.8896 42.5476C34.0069 42.5476 34.0995 42.6017 34.1674 42.7097L36.4733 46.2334L36.3621 46.2473L38.668 42.7097C38.7329 42.6017 38.8301 42.5476 38.9597 42.5476C39.1048 42.5476 39.1774 42.6294 39.1774 42.793V48.2707C39.1774 48.4343 39.0971 48.5161 38.9366 48.5161C38.773 48.5161 38.6912 48.4343 38.6912 48.2707V43.2792L38.8347 43.3255L36.6955 46.5853C36.6276 46.6902 36.5304 46.7427 36.4038 46.7427C36.2927 46.7427 36.2032 46.6902 36.1353 46.5853L33.996 43.3255L34.1303 43.3765V48.2707C34.1303 48.4343 34.0501 48.5161 33.8896 48.5161ZM42.712 48.5161C42.0421 48.5161 41.5528 48.3618 41.2442 48.0531C40.9355 47.7444 40.7811 47.2551 40.7811 46.5853V44.4738C40.7811 43.7978 40.9355 43.307 41.2442 43.0014C41.5528 42.6927 42.039 42.5415 42.7027 42.5476H43.8232C44.4931 42.5476 44.9808 42.702 45.2864 43.0107C45.5951 43.3194 45.7495 43.8086 45.7495 44.4785V46.5853C45.7495 47.2551 45.5951 47.7444 45.2864 48.0531C44.9808 48.3618 44.4931 48.5161 43.8232 48.5161H42.712ZM42.712 48.0299H43.8232C44.1782 48.0299 44.4607 47.9836 44.6706 47.891C44.8805 47.7984 45.0318 47.6472 45.1244 47.4372C45.217 47.2273 45.2633 46.9433 45.2633 46.5853V44.4785C45.2633 44.1235 45.217 43.841 45.1244 43.6311C45.0318 43.4212 44.8805 43.27 44.6706 43.1774C44.4607 43.0817 44.1782 43.0338 43.8232 43.0338H42.7027C42.3477 43.0307 42.0653 43.0755 41.8554 43.1681C41.6485 43.2576 41.4988 43.4089 41.4062 43.6219C41.3136 43.8318 41.2673 44.1158 41.2673 44.4738V46.5853C41.2673 46.9433 41.3136 47.2273 41.4062 47.4372C41.4988 47.6472 41.6501 47.7984 41.86 47.891C42.0699 47.9836 42.3539 48.0299 42.712 48.0299ZM47.5996 48.5161C47.436 48.5161 47.3542 48.4343 47.3542 48.2707V42.793C47.3542 42.6294 47.436 42.5476 47.5996 42.5476H49.8314C50.6001 42.5476 51.1588 42.7236 51.5076 43.0755C51.8595 43.4274 52.0355 43.9877 52.0355 44.7563V46.3075C52.0355 47.0761 51.8595 47.6364 51.5076 47.9883C51.1588 48.3402 50.6001 48.5161 49.8314 48.5161H47.5996ZM47.8404 48.0299H49.8314C50.2513 48.0299 50.5862 47.9744 50.8362 47.8632C51.0893 47.7521 51.2715 47.5715 51.3826 47.3215C51.4937 47.0684 51.5493 46.7304 51.5493 46.3075V44.7563C51.5493 44.3365 51.4937 44.0016 51.3826 43.7515C51.2715 43.4984 51.0893 43.3163 50.8362 43.2051C50.5862 43.0909 50.2513 43.0338 49.8314 43.0338H47.8404V48.0299ZM55.4453 48.5161C54.7755 48.5161 54.2862 48.3618 53.9775 48.0531C53.6688 47.7444 53.5145 47.2551 53.5145 46.5853V44.4738C53.5145 43.7978 53.6688 43.307 53.9775 43.0014C54.2862 42.6927 54.7724 42.5415 55.4361 42.5476H56.5566C57.2265 42.5476 57.7142 42.702 58.0198 43.0107C58.3285 43.3194 58.4828 43.8086 58.4828 44.4785V46.5853C58.4828 47.2551 58.3285 47.7444 58.0198 48.0531C57.7142 48.3618 57.2265 48.5161 56.5566 48.5161H55.4453ZM55.4453 48.0299H56.5566C56.9116 48.0299 57.1941 47.9836 57.404 47.891C57.6139 47.7984 57.7651 47.6472 57.8577 47.4372C57.9503 47.2273 57.9966 46.9433 57.9966 46.5853V44.4785C57.9966 44.1235 57.9503 43.841 57.8577 43.6311C57.7651 43.4212 57.6139 43.27 57.404 43.1774C57.1941 43.0817 56.9116 43.0338 56.5566 43.0338H55.4361C55.0811 43.0307 54.7986 43.0755 54.5887 43.1681C54.3819 43.2576 54.2322 43.4089 54.1396 43.6219C54.047 43.8318 54.0007 44.1158 54.0007 44.4738V46.5853C54.0007 46.9433 54.047 47.2273 54.1396 47.4372C54.2322 47.6472 54.3835 47.7984 54.5934 47.891C54.8033 47.9836 55.0873 48.0299 55.4453 48.0299Z" fill="#0078F9"/>
</svg>
