<svg width="32" height="32" viewBox="0 0 32 32" fill="none" xmlns="http://www.w3.org/2000/svg">
<path fill-rule="evenodd" clip-rule="evenodd" d="M26.0899 7.14255C23.5865 5.05548 20.0863 4 16 4C11.9138 4 8.41354 5.05548 5.91011 7.14255C3.37756 9.25389 2.00001 12.3113 2.00001 16C2.00001 17.0887 2.35912 18.425 2.68346 19.4373C3.02144 20.4921 3.38274 21.3763 3.48485 21.6211L3.50189 21.6614L3.51213 21.6855L3.51473 21.6917C3.52724 21.7275 3.63517 22.0586 3.55807 22.6365C3.47797 23.2369 3.18872 24.1757 2.27086 25.3863C2.02826 25.7063 1.94279 26.1186 2.03818 26.5086C2.13357 26.8987 2.39967 27.225 2.76256 27.3969C4.61204 28.2729 6.45967 27.9623 7.72795 27.5223C8.33645 27.3112 8.84886 27.0584 9.221 26.8504C11.4099 27.8007 13.841 28 16 28C20.0863 28 23.5865 26.9445 26.0899 24.8575C28.6225 22.7461 30 19.6887 30 16C30 12.3113 28.6225 9.25389 26.0899 7.14255ZM3.51473 21.6917L3.51364 21.6887L3.5156 21.6939L3.51473 21.6917ZM8.33333 16C8.33333 16.9205 9.07952 17.6667 10 17.6667C10.9205 17.6667 11.6667 16.9205 11.6667 16C11.6667 15.0795 10.9205 14.3333 10 14.3333C9.07952 14.3333 8.33333 15.0795 8.33333 16ZM14.3333 16C14.3333 16.9205 15.0795 17.6667 16 17.6667C16.9205 17.6667 17.6667 16.9205 17.6667 16C17.6667 15.0795 16.9205 14.3333 16 14.3333C15.0795 14.3333 14.3333 15.0795 14.3333 16ZM22 17.6667C21.0795 17.6667 20.3333 16.9205 20.3333 16C20.3333 15.0795 21.0795 14.3333 22 14.3333C22.9205 14.3333 23.6667 15.0795 23.6667 16C23.6667 16.9205 22.9205 17.6667 22 17.6667Z" fill="#0762C8"/>
</svg>
